<svg width="2202" height="1020" viewBox="0 0 2202 1020" fill="none" xmlns="http://www.w3.org/2000/svg">
<path opacity="0.1" d="M50.5816 0.562235H0.561747V54.1625M50.5816 0.562235V54.1625M50.5816 0.562235H100.602M50.5816 54.1625H0.561747M50.5816 54.1625V107.763M50.5816 54.1625H100.602M0.561747 54.1625V107.763M50.5816 107.763H0.561747M50.5816 107.763V161.363M50.5816 107.763H100.602M0.561747 107.763V161.363M50.5816 161.363H0.561747M50.5816 161.363V214.963M50.5816 161.363H100.602M0.561747 161.363V214.963M50.5816 214.963H0.561747M50.5816 214.963V268.564M50.5816 214.963H100.602M0.561747 214.963V268.564M50.5816 268.564H0.561747M50.5816 268.564V322.164M50.5816 268.564H100.602M0.561747 268.564V322.164M50.5816 322.164H0.561747M50.5816 322.164V375.764M50.5816 322.164H100.602M0.561747 322.164V375.764M50.5816 375.764H0.561747M50.5816 375.764V429.364M50.5816 375.764H100.602M0.561747 375.764V429.364M50.5816 429.364H0.561747M50.5816 429.364V482.965M50.5816 429.364H100.602M0.561747 429.364V482.965M50.5816 482.965H0.561747M50.5816 482.965V536.565M50.5816 482.965H100.602M0.561747 482.965V536.565M50.5816 536.565H0.561747M50.5816 536.565V590.165M50.5816 536.565H100.602M0.561747 536.565V590.165M50.5816 590.165H0.561747M50.5816 590.165V643.765M50.5816 590.165H100.602M0.561747 590.165V643.765M50.5816 643.765H0.561747M50.5816 643.765V697.366M50.5816 643.765H100.602M0.561747 643.765V697.366M50.5816 697.366H0.561747M50.5816 697.366V750.966M50.5816 697.366H100.602M0.561747 697.366V750.966M50.5816 750.966H0.561747M50.5816 750.966V804.566M50.5816 750.966H100.602M0.561747 750.966V804.566M50.5816 804.566H0.561747M50.5816 804.566V858.167M50.5816 804.566H100.602M0.561747 804.566V858.167M50.5816 858.167H0.561747M50.5816 858.167V911.767M50.5816 858.167H100.602M0.561747 858.167V911.767M50.5816 911.767H0.561747M50.5816 911.767V965.367M50.5816 911.767H100.602M0.561747 911.767V965.367M50.5816 965.367H0.561747M50.5816 965.367V1018.97M50.5816 965.367H100.602M0.561747 965.367V1018.97H50.5816M50.5816 1018.97H100.602M100.602 0.562235V54.1625M100.602 0.562235H150.621M100.602 54.1625V107.763M100.602 54.1625H150.621M100.602 107.763V161.363M100.602 107.763H150.621M100.602 161.363V214.963M100.602 161.363H150.621M100.602 214.963V268.564M100.602 214.963H150.621M100.602 268.564V322.164M100.602 268.564H150.621M100.602 322.164V375.764M100.602 322.164H150.621M100.602 375.764V429.364M100.602 375.764H150.621M100.602 429.364V482.965M100.602 429.364H150.621M100.602 482.965V536.565M100.602 482.965H150.621M100.602 536.565V590.165M100.602 536.565H150.621M100.602 590.165V643.765M100.602 590.165H150.621M100.602 643.765V697.366M100.602 643.765H150.621M100.602 697.366V750.966M100.602 697.366H150.621M100.602 750.966V804.566M100.602 750.966H150.621M100.602 804.566V858.167M100.602 804.566H150.621M100.602 858.167V911.767M100.602 858.167H150.621M100.602 911.767V965.367M100.602 911.767H150.621M100.602 965.367V1018.97M100.602 965.367H150.621M100.602 1018.97H150.621M150.621 0.562235V54.1625M150.621 0.562235H200.641M150.621 54.1625V107.763M150.621 54.1625H200.641M150.621 107.763V161.363M150.621 107.763H200.641M150.621 161.363V214.963M150.621 161.363H200.641M150.621 214.963V268.564M150.621 214.963H200.641M150.621 268.564V322.164M150.621 268.564H200.641M150.621 322.164V375.764M150.621 322.164H200.641M150.621 375.764V429.364M150.621 375.764H200.641M150.621 429.364V482.965M150.621 429.364H200.641M150.621 482.965V536.565M150.621 482.965H200.641M150.621 536.565V590.165M150.621 536.565H200.641M150.621 590.165V643.765M150.621 590.165H200.641M150.621 643.765V697.366M150.621 643.765H200.641M150.621 697.366V750.966M150.621 697.366H200.641M150.621 750.966V804.566M150.621 750.966H200.641M150.621 804.566V858.167M150.621 804.566H200.641M150.621 858.167V911.767M150.621 858.167H200.641M150.621 911.767V965.367M150.621 911.767H200.641M150.621 965.367V1018.97M150.621 965.367H200.641M150.621 1018.97H200.641M200.641 0.562235V54.1625M200.641 0.562235H250.661M200.641 54.1625V107.763M200.641 54.1625H250.661M200.641 107.763V161.363M200.641 107.763H250.661M200.641 161.363V214.963M200.641 161.363H250.661M200.641 214.963V268.564M200.641 214.963H250.661M200.641 268.564V322.164M200.641 268.564H250.661M200.641 322.164V375.764M200.641 322.164H250.661M200.641 375.764V429.364M200.641 375.764H250.661M200.641 429.364V482.965M200.641 429.364H250.661M200.641 482.965V536.565M200.641 482.965H250.661M200.641 536.565V590.165M200.641 536.565H250.661M200.641 590.165V643.765M200.641 590.165H250.661M200.641 643.765V697.366M200.641 643.765H250.661M200.641 697.366V750.966M200.641 697.366H250.661M200.641 750.966V804.566M200.641 750.966H250.661M200.641 804.566V858.167M200.641 804.566H250.661M200.641 858.167V911.767M200.641 858.167H250.661M200.641 911.767V965.367M200.641 911.767H250.661M200.641 965.367V1018.97M200.641 965.367H250.661M200.641 1018.97H250.661M250.661 0.562235V54.1625M250.661 0.562235H300.681M250.661 54.1625V107.763M250.661 54.1625H300.681M250.661 107.763V161.363M250.661 107.763H300.681M250.661 161.363V214.963M250.661 161.363H300.681M250.661 214.963V268.564M250.661 214.963H300.681M250.661 268.564V322.164M250.661 268.564H300.681M250.661 322.164V375.764M250.661 322.164H300.681M250.661 375.764V429.364M250.661 375.764H300.681M250.661 429.364V482.965M250.661 429.364H300.681M250.661 482.965V536.565M250.661 482.965H300.681M250.661 536.565V590.165M250.661 536.565H300.681M250.661 590.165V643.765M250.661 590.165H300.681M250.661 643.765V697.366M250.661 643.765H300.681M250.661 697.366V750.966M250.661 697.366H300.681M250.661 750.966V804.566M250.661 750.966H300.681M250.661 804.566V858.167M250.661 804.566H300.681M250.661 858.167V911.767M250.661 858.167H300.681M250.661 911.767V965.367M250.661 911.767H300.681M250.661 965.367V1018.97M250.661 965.367H300.681M250.661 1018.97H300.681M300.681 0.562235V54.1625M300.681 0.562235H350.701M300.681 54.1625V107.763M300.681 54.1625H350.701M300.681 107.763V161.363M300.681 107.763H350.701M300.681 161.363V214.963M300.681 161.363H350.701M300.681 214.963V268.564M300.681 214.963H350.701M300.681 268.564V322.164M300.681 268.564H350.701M300.681 322.164V375.764M300.681 322.164H350.701M300.681 375.764V429.364M300.681 375.764H350.701M300.681 429.364V482.965M300.681 429.364H350.701M300.681 482.965V536.565M300.681 482.965H350.701M300.681 536.565V590.165M300.681 536.565H350.701M300.681 590.165V643.765M300.681 590.165H350.701M300.681 643.765V697.366M300.681 643.765H350.701M300.681 697.366V750.966M300.681 697.366H350.701M300.681 750.966V804.566M300.681 750.966H350.701M300.681 804.566V858.167M300.681 804.566H350.701M300.681 858.167V911.767M300.681 858.167H350.701M300.681 911.767V965.367M300.681 911.767H350.701M300.681 965.367V1018.97M300.681 965.367H350.701M300.681 1018.97H350.701M350.701 0.562235V54.1625M350.701 0.562235H400.721M350.701 54.1625V107.763M350.701 54.1625H400.721M350.701 107.763V161.363M350.701 107.763H400.721M350.701 161.363V214.963M350.701 161.363H400.721M350.701 214.963V268.564M350.701 214.963H400.721M350.701 268.564V322.164M350.701 268.564H400.721M350.701 322.164V375.764M350.701 322.164H400.721M350.701 375.764V429.364M350.701 375.764H400.721M350.701 429.364V482.965M350.701 429.364H400.721M350.701 482.965V536.565M350.701 482.965H400.721M350.701 536.565V590.165M350.701 536.565H400.721M350.701 590.165V643.765M350.701 590.165H400.721M350.701 643.765V697.366M350.701 643.765H400.721M350.701 697.366V750.966M350.701 697.366H400.721M350.701 750.966V804.566M350.701 750.966H400.721M350.701 804.566V858.167M350.701 804.566H400.721M350.701 858.167V911.767M350.701 858.167H400.721M350.701 911.767V965.367M350.701 911.767H400.721M350.701 965.367V1018.97M350.701 965.367H400.721M350.701 1018.97H400.721M400.721 0.562235V54.1625M400.721 0.562235H450.741M400.721 54.1625V107.763M400.721 54.1625H450.741M400.721 107.763V161.363M400.721 107.763H450.741M400.721 161.363V214.963M400.721 161.363H450.741M400.721 214.963V268.564M400.721 214.963H450.741M400.721 268.564V322.164M400.721 268.564H450.741M400.721 322.164V375.764M400.721 322.164H450.741M400.721 375.764V429.364M400.721 375.764H450.741M400.721 429.364V482.965M400.721 429.364H450.741M400.721 482.965V536.565M400.721 482.965H450.741M400.721 536.565V590.165M400.721 536.565H450.741M400.721 590.165V643.765M400.721 590.165H450.741M400.721 643.765V697.366M400.721 643.765H450.741M400.721 697.366V750.966M400.721 697.366H450.741M400.721 750.966V804.566M400.721 750.966H450.741M400.721 804.566V858.167M400.721 804.566H450.741M400.721 858.167V911.767M400.721 858.167H450.741M400.721 911.767V965.367M400.721 911.767H450.741M400.721 965.367V1018.97M400.721 965.367H450.741M400.721 1018.97H450.741M450.741 0.562235V54.1625M450.741 0.562235H500.761M450.741 54.1625V107.763M450.741 54.1625H500.761M450.741 107.763V161.363M450.741 107.763H500.761M450.741 161.363V214.963M450.741 161.363H500.761M450.741 214.963V268.564M450.741 214.963H500.761M450.741 268.564V322.164M450.741 268.564H500.761M450.741 322.164V375.764M450.741 322.164H500.761M450.741 375.764V429.364M450.741 375.764H500.761M450.741 429.364V482.965M450.741 429.364H500.761M450.741 482.965V536.565M450.741 482.965H500.761M450.741 536.565V590.165M450.741 536.565H500.761M450.741 590.165V643.765M450.741 590.165H500.761M450.741 643.765V697.366M450.741 643.765H500.761M450.741 697.366V750.966M450.741 697.366H500.761M450.741 750.966V804.566M450.741 750.966H500.761M450.741 804.566V858.167M450.741 804.566H500.761M450.741 858.167V911.767M450.741 858.167H500.761M450.741 911.767V965.367M450.741 911.767H500.761M450.741 965.367V1018.97M450.741 965.367H500.761M450.741 1018.97H500.761M500.761 0.562235V54.1625M500.761 0.562235H550.781M500.761 54.1625V107.763M500.761 54.1625H550.781M500.761 107.763V161.363M500.761 107.763H550.781M500.761 161.363V214.963M500.761 161.363H550.781M500.761 214.963V268.564M500.761 214.963H550.781M500.761 268.564V322.164M500.761 268.564H550.781M500.761 322.164V375.764M500.761 322.164H550.781M500.761 375.764V429.364M500.761 375.764H550.781M500.761 429.364V482.965M500.761 429.364H550.781M500.761 482.965V536.565M500.761 482.965H550.781M500.761 536.565V590.165M500.761 536.565H550.781M500.761 590.165V643.765M500.761 590.165H550.781M500.761 643.765V697.366M500.761 643.765H550.781M500.761 697.366V750.966M500.761 697.366H550.781M500.761 750.966V804.566M500.761 750.966H550.781M500.761 804.566V858.167M500.761 804.566H550.781M500.761 858.167V911.767M500.761 858.167H550.781M500.761 911.767V965.367M500.761 911.767H550.781M500.761 965.367V1018.97M500.761 965.367H550.781M500.761 1018.97H550.781M550.781 0.562235V54.1625M550.781 0.562235H600.801M550.781 54.1625V107.763M550.781 54.1625H600.801M550.781 107.763V161.363M550.781 107.763H600.801M550.781 161.363V214.963M550.781 161.363H600.801M550.781 214.963V268.564M550.781 214.963H600.801M550.781 268.564V322.164M550.781 268.564H600.801M550.781 322.164V375.764M550.781 322.164H600.801M550.781 375.764V429.364M550.781 375.764H600.801M550.781 429.364V482.965M550.781 429.364H600.801M550.781 482.965V536.565M550.781 482.965H600.801M550.781 536.565V590.165M550.781 536.565H600.801M550.781 590.165V643.765M550.781 590.165H600.801M550.781 643.765V697.366M550.781 643.765H600.801M550.781 697.366V750.966M550.781 697.366H600.801M550.781 750.966V804.566M550.781 750.966H600.801M550.781 804.566V858.167M550.781 804.566H600.801M550.781 858.167V911.767M550.781 858.167H600.801M550.781 911.767V965.367M550.781 911.767H600.801M550.781 965.367V1018.97M550.781 965.367H600.801M550.781 1018.97H600.801M600.801 0.562235V54.1625M600.801 0.562235H650.82M600.801 54.1625V107.763M600.801 54.1625H650.82M600.801 107.763V161.363M600.801 107.763H650.82M600.801 161.363V214.963M600.801 161.363H650.82M600.801 214.963V268.564M600.801 214.963H650.82M600.801 268.564V322.164M600.801 268.564H650.82M600.801 322.164V375.764M600.801 322.164H650.82M600.801 375.764V429.364M600.801 375.764H650.82M600.801 429.364V482.965M600.801 429.364H650.82M600.801 482.965V536.565M600.801 482.965H650.82M600.801 536.565V590.165M600.801 536.565H650.82M600.801 590.165V643.765M600.801 590.165H650.82M600.801 643.765V697.366M600.801 643.765H650.82M600.801 697.366V750.966M600.801 697.366H650.82M600.801 750.966V804.566M600.801 750.966H650.82M600.801 804.566V858.167M600.801 804.566H650.82M600.801 858.167V911.767M600.801 858.167H650.82M600.801 911.767V965.367M600.801 911.767H650.82M600.801 965.367V1018.97M600.801 965.367H650.82M600.801 1018.97H650.82M650.82 0.562235V54.1625M650.82 0.562235H700.84M650.82 54.1625V107.763M650.82 54.1625H700.84M650.82 107.763V161.363M650.82 107.763H700.84M650.82 161.363V214.963M650.82 161.363H700.84M650.82 214.963V268.564M650.82 214.963H700.84M650.82 268.564V322.164M650.82 268.564H700.84M650.82 322.164V375.764M650.82 322.164H700.84M650.82 375.764V429.364M650.82 375.764H700.84M650.82 429.364V482.965M650.82 429.364H700.84M650.82 482.965V536.565M650.82 482.965H700.84M650.82 536.565V590.165M650.82 536.565H700.84M650.82 590.165V643.765M650.82 590.165H700.84M650.82 643.765V697.366M650.82 643.765H700.84M650.82 697.366V750.966M650.82 697.366H700.84M650.82 750.966V804.566M650.82 750.966H700.84M650.82 804.566V858.167M650.82 804.566H700.84M650.82 858.167V911.767M650.82 858.167H700.84M650.82 911.767V965.367M650.82 911.767H700.84M650.82 965.367V1018.97M650.82 965.367H700.84M650.82 1018.97H700.84M700.84 0.562235V54.1625M700.84 0.562235H750.86M700.84 54.1625V107.763M700.84 54.1625H750.86M700.84 107.763V161.363M700.84 107.763H750.86M700.84 161.363V214.963M700.84 161.363H750.86M700.84 214.963V268.564M700.84 214.963H750.86M700.84 268.564V322.164M700.84 268.564H750.86M700.84 322.164V375.764M700.84 322.164H750.86M700.84 375.764V429.364M700.84 375.764H750.86M700.84 429.364V482.965M700.84 429.364H750.86M700.84 482.965V536.565M700.84 482.965H750.86M700.84 536.565V590.165M700.84 536.565H750.86M700.84 590.165V643.765M700.84 590.165H750.86M700.84 643.765V697.366M700.84 643.765H750.86M700.84 697.366V750.966M700.84 697.366H750.86M700.84 750.966V804.566M700.84 750.966H750.86M700.84 804.566V858.167M700.84 804.566H750.86M700.84 858.167V911.767M700.84 858.167H750.86M700.84 911.767V965.367M700.84 911.767H750.86M700.84 965.367V1018.97M700.84 965.367H750.86M700.84 1018.97H750.86M750.86 0.562235V54.1625M750.86 0.562235H800.88M750.86 54.1625V107.763M750.86 54.1625H800.88M750.86 107.763V161.363M750.86 107.763H800.88M750.86 161.363V214.963M750.86 161.363H800.88M750.86 214.963V268.564M750.86 214.963H800.88M750.86 268.564V322.164M750.86 268.564H800.88M750.86 322.164V375.764M750.86 322.164H800.88M750.86 375.764V429.364M750.86 375.764H800.88M750.86 429.364V482.965M750.86 429.364H800.88M750.86 482.965V536.565M750.86 482.965H800.88M750.86 536.565V590.165M750.86 536.565H800.88M750.86 590.165V643.765M750.86 590.165H800.88M750.86 643.765V697.366M750.86 643.765H800.88M750.86 697.366V750.966M750.86 697.366H800.88M750.86 750.966V804.566M750.86 750.966H800.88M750.86 804.566V858.167M750.86 804.566H800.88M750.86 858.167V911.767M750.86 858.167H800.88M750.86 911.767V965.367M750.86 911.767H800.88M750.86 965.367V1018.97M750.86 965.367H800.88M750.86 1018.97H800.88M800.88 0.562235V54.1625M800.88 0.562235H850.9M800.88 54.1625V107.763M800.88 54.1625H850.9M800.88 107.763V161.363M800.88 107.763H850.9M800.88 161.363V214.963M800.88 161.363H850.9M800.88 214.963V268.564M800.88 214.963H850.9M800.88 268.564V322.164M800.88 268.564H850.9M800.88 322.164V375.764M800.88 322.164H850.9M800.88 375.764V429.364M800.88 375.764H850.9M800.88 429.364V482.965M800.88 429.364H850.9M800.88 482.965V536.565M800.88 482.965H850.9M800.88 536.565V590.165M800.88 536.565H850.9M800.88 590.165V643.765M800.88 590.165H850.9M800.88 643.765V697.366M800.88 643.765H850.9M800.88 697.366V750.966M800.88 697.366H850.9M800.88 750.966V804.566M800.88 750.966H850.9M800.88 804.566V858.167M800.88 804.566H850.9M800.88 858.167V911.767M800.88 858.167H850.9M800.88 911.767V965.367M800.88 911.767H850.9M800.88 965.367V1018.97M800.88 965.367H850.9M800.88 1018.97H850.9M850.9 0.562235V54.1625M850.9 0.562235H900.92M850.9 54.1625V107.763M850.9 54.1625H900.92M850.9 107.763V161.363M850.9 107.763H900.92M850.9 161.363V214.963M850.9 161.363H900.92M850.9 214.963V268.564M850.9 214.963H900.92M850.9 268.564V322.164M850.9 268.564H900.92M850.9 322.164V375.764M850.9 322.164H900.92M850.9 375.764V429.364M850.9 375.764H900.92M850.9 429.364V482.965M850.9 429.364H900.92M850.9 482.965V536.565M850.9 482.965H900.92M850.9 536.565V590.165M850.9 536.565H900.92M850.9 590.165V643.765M850.9 590.165H900.92M850.9 643.765V697.366M850.9 643.765H900.92M850.9 697.366V750.966M850.9 697.366H900.92M850.9 750.966V804.566M850.9 750.966H900.92M850.9 804.566V858.167M850.9 804.566H900.92M850.9 858.167V911.767M850.9 858.167H900.92M850.9 911.767V965.367M850.9 911.767H900.92M850.9 965.367V1018.97M850.9 965.367H900.92M850.9 1018.97H900.92M900.92 0.562235V54.1625M900.92 0.562235H950.94M900.92 54.1625V107.763M900.92 54.1625H950.94M900.92 107.763V161.363M900.92 107.763H950.94M900.92 161.363V214.963M900.92 161.363H950.94M900.92 214.963V268.564M900.92 214.963H950.94M900.92 268.564V322.164M900.92 268.564H950.94M900.92 322.164V375.764M900.92 322.164H950.94M900.92 375.764V429.364M900.92 375.764H950.94M900.92 429.364V482.965M900.92 429.364H950.94M900.92 482.965V536.565M900.92 482.965H950.94M900.92 536.565V590.165M900.92 536.565H950.94M900.92 590.165V643.765M900.92 590.165H950.94M900.92 643.765V697.366M900.92 643.765H950.94M900.92 697.366V750.966M900.92 697.366H950.94M900.92 750.966V804.566M900.92 750.966H950.94M900.92 804.566V858.167M900.92 804.566H950.94M900.92 858.167V911.767M900.92 858.167H950.94M900.92 911.767V965.367M900.92 911.767H950.94M900.92 965.367V1018.97M900.92 965.367H950.94M900.92 1018.97H950.94M950.94 0.562235V54.1625M950.94 0.562235H1000.96M950.94 54.1625V107.763M950.94 54.1625H1000.96M950.94 107.763V161.363M950.94 107.763H1000.96M950.94 161.363V214.963M950.94 161.363H1000.96M950.94 214.963V268.564M950.94 214.963H1000.96M950.94 268.564V322.164M950.94 268.564H1000.96M950.94 322.164V375.764M950.94 322.164H1000.96M950.94 375.764V429.364M950.94 375.764H1000.96M950.94 429.364V482.965M950.94 429.364H1000.96M950.94 482.965V536.565M950.94 482.965H1000.96M950.94 536.565V590.165M950.94 536.565H1000.96M950.94 590.165V643.765M950.94 590.165H1000.96M950.94 643.765V697.366M950.94 643.765H1000.96M950.94 697.366V750.966M950.94 697.366H1000.96M950.94 750.966V804.566M950.94 750.966H1000.96M950.94 804.566V858.167M950.94 804.566H1000.96M950.94 858.167V911.767M950.94 858.167H1000.96M950.94 911.767V965.367M950.94 911.767H1000.96M950.94 965.367V1018.97M950.94 965.367H1000.96M950.94 1018.97H1000.96M1000.96 0.562235V54.1625M1000.96 0.562235H1050.98M1000.96 54.1625V107.763M1000.96 54.1625H1050.98M1000.96 107.763V161.363M1000.96 107.763H1050.98M1000.96 161.363V214.963M1000.96 161.363H1050.98M1000.96 214.963V268.564M1000.96 214.963H1050.98M1000.96 268.564V322.164M1000.96 268.564H1050.98M1000.96 322.164V375.764M1000.96 322.164H1050.98M1000.96 375.764V429.364M1000.96 375.764H1050.98M1000.96 429.364V482.965M1000.96 429.364H1050.98M1000.96 482.965V536.565M1000.96 482.965H1050.98M1000.96 536.565V590.165M1000.96 536.565H1050.98M1000.96 590.165V643.765M1000.96 590.165H1050.98M1000.96 643.765V697.366M1000.96 643.765H1050.98M1000.96 697.366V750.966M1000.96 697.366H1050.98M1000.96 750.966V804.566M1000.96 750.966H1050.98M1000.96 804.566V858.167M1000.96 804.566H1050.98M1000.96 858.167V911.767M1000.96 858.167H1050.98M1000.96 911.767V965.367M1000.96 911.767H1050.98M1000.96 965.367V1018.97M1000.96 965.367H1050.98M1000.96 1018.97H1050.98M1050.98 0.562235V54.1625M1050.98 0.562235H1101M1050.98 54.1625V107.763M1050.98 54.1625H1101M1050.98 107.763V161.363M1050.98 107.763H1101M1050.98 161.363V214.963M1050.98 161.363H1101M1050.98 214.963V268.564M1050.98 214.963H1101M1050.98 268.564V322.164M1050.98 268.564H1101M1050.98 322.164V375.764M1050.98 322.164H1101M1050.98 375.764V429.364M1050.98 375.764H1101M1050.98 429.364V482.965M1050.98 429.364H1101M1050.98 482.965V536.565M1050.98 482.965H1101M1050.98 536.565V590.165M1050.98 536.565H1101M1050.98 590.165V643.765M1050.98 590.165H1101M1050.98 643.765V697.366M1050.98 643.765H1101M1050.98 697.366V750.966M1050.98 697.366H1101M1050.98 750.966V804.566M1050.98 750.966H1101M1050.98 804.566V858.167M1050.98 804.566H1101M1050.98 858.167V911.767M1050.98 858.167H1101M1050.98 911.767V965.367M1050.98 911.767H1101M1050.98 965.367V1018.97M1050.98 965.367H1101M1050.98 1018.97H1101M1101 0.562235V54.1625M1101 0.562235H1151.02M1101 54.1625V107.763M1101 54.1625H1151.02M1101 107.763V161.363M1101 107.763H1151.02M1101 161.363V214.963M1101 161.363H1151.02M1101 214.963V268.564M1101 214.963H1151.02M1101 268.564V322.164M1101 268.564H1151.02M1101 322.164V375.764M1101 322.164H1151.02M1101 375.764V429.364M1101 375.764H1151.02M1101 429.364V482.965M1101 429.364H1151.02M1101 482.965V536.565M1101 482.965H1151.02M1101 536.565V590.165M1101 536.565H1151.02M1101 590.165V643.765M1101 590.165H1151.02M1101 643.765V697.366M1101 643.765H1151.02M1101 697.366V750.966M1101 697.366H1151.02M1101 750.966V804.566M1101 750.966H1151.02M1101 804.566V858.167M1101 804.566H1151.02M1101 858.167V911.767M1101 858.167H1151.02M1101 911.767V965.367M1101 911.767H1151.02M1101 965.367V1018.97M1101 965.367H1151.02M1101 1018.97H1151.02M1151.02 0.562235V54.1625M1151.02 0.562235H1201.04M1151.02 54.1625V107.763M1151.02 54.1625H1201.04M1151.02 107.763V161.363M1151.02 107.763H1201.04M1151.02 161.363V214.963M1151.02 161.363H1201.04M1151.02 214.963V268.564M1151.02 214.963H1201.04M1151.02 268.564V322.164M1151.02 268.564H1201.04M1151.02 322.164V375.764M1151.02 322.164H1201.04M1151.02 375.764V429.364M1151.02 375.764H1201.04M1151.02 429.364V482.965M1151.02 429.364H1201.04M1151.02 482.965V536.565M1151.02 482.965H1201.04M1151.02 536.565V590.165M1151.02 536.565H1201.04M1151.02 590.165V643.765M1151.02 590.165H1201.04M1151.02 643.765V697.366M1151.02 643.765H1201.04M1151.02 697.366V750.966M1151.02 697.366H1201.04M1151.02 750.966V804.566M1151.02 750.966H1201.04M1151.02 804.566V858.167M1151.02 804.566H1201.04M1151.02 858.167V911.767M1151.02 858.167H1201.04M1151.02 911.767V965.367M1151.02 911.767H1201.04M1151.02 965.367V1018.97M1151.02 965.367H1201.04M1151.02 1018.97H1201.04M1201.04 0.562235V54.1625M1201.04 0.562235H1251.06M1201.04 54.1625V107.763M1201.04 54.1625H1251.06M1201.04 107.763V161.363M1201.04 107.763H1251.06M1201.04 161.363V214.963M1201.04 161.363H1251.06M1201.04 214.963V268.564M1201.04 214.963H1251.06M1201.04 268.564V322.164M1201.04 268.564H1251.06M1201.04 322.164V375.764M1201.04 322.164H1251.06M1201.04 375.764V429.364M1201.04 375.764H1251.06M1201.04 429.364V482.965M1201.04 429.364H1251.06M1201.04 482.965V536.565M1201.04 482.965H1251.06M1201.04 536.565V590.165M1201.04 536.565H1251.06M1201.04 590.165V643.765M1201.04 590.165H1251.06M1201.04 643.765V697.366M1201.04 643.765H1251.06M1201.04 697.366V750.966M1201.04 697.366H1251.06M1201.04 750.966V804.566M1201.04 750.966H1251.06M1201.04 804.566V858.167M1201.04 804.566H1251.06M1201.04 858.167V911.767M1201.04 858.167H1251.06M1201.04 911.767V965.367M1201.04 911.767H1251.06M1201.04 965.367V1018.97M1201.04 965.367H1251.06M1201.04 1018.97H1251.06M1251.06 0.562235V54.1625M1251.06 0.562235H1301.08M1251.06 54.1625V107.763M1251.06 54.1625H1301.08M1251.06 107.763V161.363M1251.06 107.763H1301.08M1251.06 161.363V214.963M1251.06 161.363H1301.08M1251.06 214.963V268.564M1251.06 214.963H1301.08M1251.06 268.564V322.164M1251.06 268.564H1301.08M1251.06 322.164V375.764M1251.06 322.164H1301.08M1251.06 375.764V429.364M1251.06 375.764H1301.08M1251.06 429.364V482.965M1251.06 429.364H1301.08M1251.06 482.965V536.565M1251.06 482.965H1301.08M1251.06 536.565V590.165M1251.06 536.565H1301.08M1251.06 590.165V643.765M1251.06 590.165H1301.08M1251.06 643.765V697.366M1251.06 643.765H1301.08M1251.06 697.366V750.966M1251.06 697.366H1301.08M1251.06 750.966V804.566M1251.06 750.966H1301.08M1251.06 804.566V858.167M1251.06 804.566H1301.08M1251.06 858.167V911.767M1251.06 858.167H1301.08M1251.06 911.767V965.367M1251.06 911.767H1301.08M1251.06 965.367V1018.97M1251.06 965.367H1301.08M1251.06 1018.97H1301.08M1301.08 0.562235V54.1625M1301.08 0.562235H1351.1M1301.08 54.1625V107.763M1301.08 54.1625H1351.1M1301.08 107.763V161.363M1301.08 107.763H1351.1M1301.08 161.363V214.963M1301.08 161.363H1351.1M1301.08 214.963V268.564M1301.08 214.963H1351.1M1301.08 268.564V322.164M1301.08 268.564H1351.1M1301.08 322.164V375.764M1301.08 322.164H1351.1M1301.08 375.764V429.364M1301.08 375.764H1351.1M1301.08 429.364V482.965M1301.08 429.364H1351.1M1301.08 482.965V536.565M1301.08 482.965H1351.1M1301.08 536.565V590.165M1301.08 536.565H1351.1M1301.08 590.165V643.765M1301.08 590.165H1351.1M1301.08 643.765V697.366M1301.08 643.765H1351.1M1301.08 697.366V750.966M1301.08 697.366H1351.1M1301.08 750.966V804.566M1301.08 750.966H1351.1M1301.08 804.566V858.167M1301.08 804.566H1351.1M1301.08 858.167V911.767M1301.08 858.167H1351.1M1301.08 911.767V965.367M1301.08 911.767H1351.1M1301.08 965.367V1018.97M1301.08 965.367H1351.1M1301.08 1018.97H1351.1M1351.1 0.562235V54.1625M1351.1 0.562235H1401.12M1351.1 54.1625V107.763M1351.1 54.1625H1401.12M1351.1 107.763V161.363M1351.1 107.763H1401.12M1351.1 161.363V214.963M1351.1 161.363H1401.12M1351.1 214.963V268.564M1351.1 214.963H1401.12M1351.1 268.564V322.164M1351.1 268.564H1401.12M1351.1 322.164V375.764M1351.1 322.164H1401.12M1351.1 375.764V429.364M1351.1 375.764H1401.12M1351.1 429.364V482.965M1351.1 429.364H1401.12M1351.1 482.965V536.565M1351.1 482.965H1401.12M1351.1 536.565V590.165M1351.1 536.565H1401.12M1351.1 590.165V643.765M1351.1 590.165H1401.12M1351.1 643.765V697.366M1351.1 643.765H1401.12M1351.1 697.366V750.966M1351.1 697.366H1401.12M1351.1 750.966V804.566M1351.1 750.966H1401.12M1351.1 804.566V858.167M1351.1 804.566H1401.12M1351.1 858.167V911.767M1351.1 858.167H1401.12M1351.1 911.767V965.367M1351.1 911.767H1401.12M1351.1 965.367V1018.97M1351.1 965.367H1401.12M1351.1 1018.97H1401.12M1401.12 0.562235V54.1625M1401.12 0.562235H1451.14M1401.12 54.1625V107.763M1401.12 54.1625H1451.14M1401.12 107.763V161.363M1401.12 107.763H1451.14M1401.12 161.363V214.963M1401.12 161.363H1451.14M1401.12 214.963V268.564M1401.12 214.963H1451.14M1401.12 268.564V322.164M1401.12 268.564H1451.14M1401.12 322.164V375.764M1401.12 322.164H1451.14M1401.12 375.764V429.364M1401.12 375.764H1451.14M1401.12 429.364V482.965M1401.12 429.364H1451.14M1401.12 482.965V536.565M1401.12 482.965H1451.14M1401.12 536.565V590.165M1401.12 536.565H1451.14M1401.12 590.165V643.765M1401.12 590.165H1451.14M1401.12 643.765V697.366M1401.12 643.765H1451.14M1401.12 697.366V750.966M1401.12 697.366H1451.14M1401.12 750.966V804.566M1401.12 750.966H1451.14M1401.12 804.566V858.167M1401.12 804.566H1451.14M1401.12 858.167V911.767M1401.12 858.167H1451.14M1401.12 911.767V965.367M1401.12 911.767H1451.14M1401.12 965.367V1018.97M1401.12 965.367H1451.14M1401.12 1018.97H1451.14M1451.14 0.562235V54.1625M1451.14 0.562235H1501.16M1451.14 54.1625V107.763M1451.14 54.1625H1501.16M1451.14 107.763V161.363M1451.14 107.763H1501.16M1451.14 161.363V214.963M1451.14 161.363H1501.16M1451.14 214.963V268.564M1451.14 214.963H1501.16M1451.14 268.564V322.164M1451.14 268.564H1501.16M1451.14 322.164V375.764M1451.14 322.164H1501.16M1451.14 375.764V429.364M1451.14 375.764H1501.16M1451.14 429.364V482.965M1451.14 429.364H1501.16M1451.14 482.965V536.565M1451.14 482.965H1501.16M1451.14 536.565V590.165M1451.14 536.565H1501.16M1451.14 590.165V643.765M1451.14 590.165H1501.16M1451.14 643.765V697.366M1451.14 643.765H1501.16M1451.14 697.366V750.966M1451.14 697.366H1501.16M1451.14 750.966V804.566M1451.14 750.966H1501.16M1451.14 804.566V858.167M1451.14 804.566H1501.16M1451.14 858.167V911.767M1451.14 858.167H1501.16M1451.14 911.767V965.367M1451.14 911.767H1501.16M1451.14 965.367V1018.97M1451.14 965.367H1501.16M1451.14 1018.97H1501.16M1501.16 0.562235V54.1625M1501.16 0.562235H1551.18M1501.16 54.1625V107.763M1501.16 54.1625H1551.18M1501.16 107.763V161.363M1501.16 107.763H1551.18M1501.16 161.363V214.963M1501.16 161.363H1551.18M1501.16 214.963V268.564M1501.16 214.963H1551.18M1501.16 268.564V322.164M1501.16 268.564H1551.18M1501.16 322.164V375.764M1501.16 322.164H1551.18M1501.16 375.764V429.364M1501.16 375.764H1551.18M1501.16 429.364V482.965M1501.16 429.364H1551.18M1501.16 482.965V536.565M1501.16 482.965H1551.18M1501.16 536.565V590.165M1501.16 536.565H1551.18M1501.16 590.165V643.765M1501.16 590.165H1551.18M1501.16 643.765V697.366M1501.16 643.765H1551.18M1501.16 697.366V750.966M1501.16 697.366H1551.18M1501.16 750.966V804.566M1501.16 750.966H1551.18M1501.16 804.566V858.167M1501.16 804.566H1551.18M1501.16 858.167V911.767M1501.16 858.167H1551.18M1501.16 911.767V965.367M1501.16 911.767H1551.18M1501.16 965.367V1018.97M1501.16 965.367H1551.18M1501.16 1018.97H1551.18M1551.18 0.562235V54.1625M1551.18 0.562235H1601.2M1551.18 54.1625V107.763M1551.18 54.1625H1601.2M1551.18 107.763V161.363M1551.18 107.763H1601.2M1551.18 161.363V214.963M1551.18 161.363H1601.2M1551.18 214.963V268.564M1551.18 214.963H1601.2M1551.18 268.564V322.164M1551.18 268.564H1601.2M1551.18 322.164V375.764M1551.18 322.164H1601.2M1551.18 375.764V429.364M1551.18 375.764H1601.2M1551.18 429.364V482.965M1551.18 429.364H1601.2M1551.18 482.965V536.565M1551.18 482.965H1601.2M1551.18 536.565V590.165M1551.18 536.565H1601.2M1551.18 590.165V643.765M1551.18 590.165H1601.2M1551.18 643.765V697.366M1551.18 643.765H1601.2M1551.18 697.366V750.966M1551.18 697.366H1601.2M1551.18 750.966V804.566M1551.18 750.966H1601.2M1551.18 804.566V858.167M1551.18 804.566H1601.2M1551.18 858.167V911.767M1551.18 858.167H1601.2M1551.18 911.767V965.367M1551.18 911.767H1601.2M1551.18 965.367V1018.97M1551.18 965.367H1601.2M1551.18 1018.97H1601.2M1601.2 0.562235V54.1625M1601.2 0.562235H1651.22M1601.2 54.1625V107.763M1601.2 54.1625H1651.22M1601.2 107.763V161.363M1601.2 107.763H1651.22M1601.2 161.363V214.963M1601.2 161.363H1651.22M1601.2 214.963V268.564M1601.2 214.963H1651.22M1601.2 268.564V322.164M1601.2 268.564H1651.22M1601.2 322.164V375.764M1601.2 322.164H1651.22M1601.2 375.764V429.364M1601.2 375.764H1651.22M1601.2 429.364V482.965M1601.2 429.364H1651.22M1601.2 482.965V536.565M1601.2 482.965H1651.22M1601.2 536.565V590.165M1601.2 536.565H1651.22M1601.2 590.165V643.765M1601.2 590.165H1651.22M1601.2 643.765V697.366M1601.2 643.765H1651.22M1601.2 697.366V750.966M1601.2 697.366H1651.22M1601.2 750.966V804.566M1601.2 750.966H1651.22M1601.2 804.566V858.167M1601.2 804.566H1651.22M1601.2 858.167V911.767M1601.2 858.167H1651.22M1601.2 911.767V965.367M1601.2 911.767H1651.22M1601.2 965.367V1018.97M1601.2 965.367H1651.22M1601.2 1018.97H1651.22M1651.22 0.562235V54.1625M1651.22 0.562235H1701.24M1651.22 54.1625V107.763M1651.22 54.1625H1701.24M1651.22 107.763V161.363M1651.22 107.763H1701.24M1651.22 161.363V214.963M1651.22 161.363H1701.24M1651.22 214.963V268.564M1651.22 214.963H1701.24M1651.22 268.564V322.164M1651.22 268.564H1701.24M1651.22 322.164V375.764M1651.22 322.164H1701.24M1651.22 375.764V429.364M1651.22 375.764H1701.24M1651.22 429.364V482.965M1651.22 429.364H1701.24M1651.22 482.965V536.565M1651.22 482.965H1701.24M1651.22 536.565V590.165M1651.22 536.565H1701.24M1651.22 590.165V643.765M1651.22 590.165H1701.24M1651.22 643.765V697.366M1651.22 643.765H1701.24M1651.22 697.366V750.966M1651.22 697.366H1701.24M1651.22 750.966V804.566M1651.22 750.966H1701.24M1651.22 804.566V858.167M1651.22 804.566H1701.24M1651.22 858.167V911.767M1651.22 858.167H1701.24M1651.22 911.767V965.367M1651.22 911.767H1701.24M1651.22 965.367V1018.97M1651.22 965.367H1701.24M1651.22 1018.97H1701.24M1701.24 0.562235V54.1625M1701.24 0.562235H1751.26M1701.24 54.1625V107.763M1701.24 54.1625H1751.26M1701.24 107.763V161.363M1701.24 107.763H1751.26M1701.24 161.363V214.963M1701.24 161.363H1751.26M1701.24 214.963V268.564M1701.24 214.963H1751.26M1701.24 268.564V322.164M1701.24 268.564H1751.26M1701.24 322.164V375.764M1701.24 322.164H1751.26M1701.24 375.764V429.364M1701.24 375.764H1751.26M1701.24 429.364V482.965M1701.24 429.364H1751.26M1701.24 482.965V536.565M1701.24 482.965H1751.26M1701.24 536.565V590.165M1701.24 536.565H1751.26M1701.24 590.165V643.765M1701.24 590.165H1751.26M1701.24 643.765V697.366M1701.24 643.765H1751.26M1701.24 697.366V750.966M1701.24 697.366H1751.26M1701.24 750.966V804.566M1701.24 750.966H1751.26M1701.24 804.566V858.167M1701.24 804.566H1751.26M1701.24 858.167V911.767M1701.24 858.167H1751.26M1701.24 911.767V965.367M1701.24 911.767H1751.26M1701.24 965.367V1018.97M1701.24 965.367H1751.26M1701.24 1018.97H1751.26M1751.26 0.562235V54.1625M1751.26 0.562235H1801.28M1751.26 54.1625V107.763M1751.26 54.1625H1801.28M1751.26 107.763V161.363M1751.26 107.763H1801.28M1751.26 161.363V214.963M1751.26 161.363H1801.28M1751.26 214.963V268.564M1751.26 214.963H1801.28M1751.26 268.564V322.164M1751.26 268.564H1801.28M1751.26 322.164V375.764M1751.26 322.164H1801.28M1751.26 375.764V429.364M1751.26 375.764H1801.28M1751.26 429.364V482.965M1751.26 429.364H1801.28M1751.26 482.965V536.565M1751.26 482.965H1801.28M1751.26 536.565V590.165M1751.26 536.565H1801.28M1751.26 590.165V643.765M1751.26 590.165H1801.28M1751.26 643.765V697.366M1751.26 643.765H1801.28M1751.26 697.366V750.966M1751.26 697.366H1801.28M1751.26 750.966V804.566M1751.26 750.966H1801.28M1751.26 804.566V858.167M1751.26 804.566H1801.28M1751.26 858.167V911.767M1751.26 858.167H1801.28M1751.26 911.767V965.367M1751.26 911.767H1801.28M1751.26 965.367V1018.97M1751.26 965.367H1801.28M1751.26 1018.97H1801.28M1801.28 0.562235V54.1625M1801.28 0.562235H1851.3M1801.28 54.1625V107.763M1801.28 54.1625H1851.3M1801.28 107.763V161.363M1801.28 107.763H1851.3M1801.28 161.363V214.963M1801.28 161.363H1851.3M1801.28 214.963V268.564M1801.28 214.963H1851.3M1801.28 268.564V322.164M1801.28 268.564H1851.3M1801.28 322.164V375.764M1801.28 322.164H1851.3M1801.28 375.764V429.364M1801.28 375.764H1851.3M1801.28 429.364V482.965M1801.28 429.364H1851.3M1801.28 482.965V536.565M1801.28 482.965H1851.3M1801.28 536.565V590.165M1801.28 536.565H1851.3M1801.28 590.165V643.765M1801.28 590.165H1851.3M1801.28 643.765V697.366M1801.28 643.765H1851.3M1801.28 697.366V750.966M1801.28 697.366H1851.3M1801.28 750.966V804.566M1801.28 750.966H1851.3M1801.28 804.566V858.167M1801.28 804.566H1851.3M1801.28 858.167V911.767M1801.28 858.167H1851.3M1801.28 911.767V965.367M1801.28 911.767H1851.3M1801.28 965.367V1018.97M1801.28 965.367H1851.3M1801.28 1018.97H1851.3M1851.3 0.562235V54.1625M1851.3 0.562235H1901.32M1851.3 54.1625V107.763M1851.3 54.1625H1901.32M1851.3 107.763V161.363M1851.3 107.763H1901.32M1851.3 161.363V214.963M1851.3 161.363H1901.32M1851.3 214.963V268.564M1851.3 214.963H1901.32M1851.3 268.564V322.164M1851.3 268.564H1901.32M1851.3 322.164V375.764M1851.3 322.164H1901.32M1851.3 375.764V429.364M1851.3 375.764H1901.32M1851.3 429.364V482.965M1851.3 429.364H1901.32M1851.3 482.965V536.565M1851.3 482.965H1901.32M1851.3 536.565V590.165M1851.3 536.565H1901.32M1851.3 590.165V643.765M1851.3 590.165H1901.32M1851.3 643.765V697.366M1851.3 643.765H1901.32M1851.3 697.366V750.966M1851.3 697.366H1901.32M1851.3 750.966V804.566M1851.3 750.966H1901.32M1851.3 804.566V858.167M1851.3 804.566H1901.32M1851.3 858.167V911.767M1851.3 858.167H1901.32M1851.3 911.767V965.367M1851.3 911.767H1901.32M1851.3 965.367V1018.97M1851.3 965.367H1901.32M1851.3 1018.97H1901.32M1901.32 0.562235V54.1625M1901.32 0.562235H1951.34M1901.32 54.1625V107.763M1901.32 54.1625H1951.34M1901.32 107.763V161.363M1901.32 107.763H1951.34M1901.32 161.363V214.963M1901.32 161.363H1951.34M1901.32 214.963V268.564M1901.32 214.963H1951.34M1901.32 268.564V322.164M1901.32 268.564H1951.34M1901.32 322.164V375.764M1901.32 322.164H1951.34M1901.32 375.764V429.364M1901.32 375.764H1951.34M1901.32 429.364V482.965M1901.32 429.364H1951.34M1901.32 482.965V536.565M1901.32 482.965H1951.34M1901.32 536.565V590.165M1901.32 536.565H1951.34M1901.32 590.165V643.765M1901.32 590.165H1951.34M1901.32 643.765V697.366M1901.32 643.765H1951.34M1901.32 697.366V750.966M1901.32 697.366H1951.34M1901.32 750.966V804.566M1901.32 750.966H1951.34M1901.32 804.566V858.167M1901.32 804.566H1951.34M1901.32 858.167V911.767M1901.32 858.167H1951.34M1901.32 911.767V965.367M1901.32 911.767H1951.34M1901.32 965.367V1018.97M1901.32 965.367H1951.34M1901.32 1018.97H1951.34M1951.34 0.562235V54.1625M1951.34 0.562235H2001.36M1951.34 54.1625V107.763M1951.34 54.1625H2001.36M1951.34 107.763V161.363M1951.34 107.763H2001.36M1951.34 161.363V214.963M1951.34 161.363H2001.36M1951.34 214.963V268.564M1951.34 214.963H2001.36M1951.34 268.564V322.164M1951.34 268.564H2001.36M1951.34 322.164V375.764M1951.34 322.164H2001.36M1951.34 375.764V429.364M1951.34 375.764H2001.36M1951.34 429.364V482.965M1951.34 429.364H2001.36M1951.34 482.965V536.565M1951.34 482.965H2001.36M1951.34 536.565V590.165M1951.34 536.565H2001.36M1951.34 590.165V643.765M1951.34 590.165H2001.36M1951.34 643.765V697.366M1951.34 643.765H2001.36M1951.34 697.366V750.966M1951.34 697.366H2001.36M1951.34 750.966V804.566M1951.34 750.966H2001.36M1951.34 804.566V858.167M1951.34 804.566H2001.36M1951.34 858.167V911.767M1951.34 858.167H2001.36M1951.34 911.767V965.367M1951.34 911.767H2001.36M1951.34 965.367V1018.97M1951.34 965.367H2001.36M1951.34 1018.97H2001.36M2001.36 0.562235V54.1625M2001.36 0.562235H2051.38M2001.36 54.1625V107.763M2001.36 54.1625H2051.38M2001.36 107.763V161.363M2001.36 107.763H2051.38M2001.36 161.363V214.963M2001.36 161.363H2051.38M2001.36 214.963V268.564M2001.36 214.963H2051.38M2001.36 268.564V322.164M2001.36 268.564H2051.38M2001.36 322.164V375.764M2001.36 322.164H2051.38M2001.36 375.764V429.364M2001.36 375.764H2051.38M2001.36 429.364V482.965M2001.36 429.364H2051.38M2001.36 482.965V536.565M2001.36 482.965H2051.38M2001.36 536.565V590.165M2001.36 536.565H2051.38M2001.36 590.165V643.765M2001.36 590.165H2051.38M2001.36 643.765V697.366M2001.36 643.765H2051.38M2001.36 697.366V750.966M2001.36 697.366H2051.38M2001.36 750.966V804.566M2001.36 750.966H2051.38M2001.36 804.566V858.167M2001.36 804.566H2051.38M2001.36 858.167V911.767M2001.36 858.167H2051.38M2001.36 911.767V965.367M2001.36 911.767H2051.38M2001.36 965.367V1018.97M2001.36 965.367H2051.38M2001.36 1018.97H2051.38M2051.38 0.562235V54.1625M2051.38 0.562235H2101.4M2051.38 54.1625V107.763M2051.38 54.1625H2101.4M2051.38 107.763V161.363M2051.38 107.763H2101.4M2051.38 161.363V214.963M2051.38 161.363H2101.4M2051.38 214.963V268.564M2051.38 214.963H2101.4M2051.38 268.564V322.164M2051.38 268.564H2101.4M2051.38 322.164V375.764M2051.38 322.164H2101.4M2051.38 375.764V429.364M2051.38 375.764H2101.4M2051.38 429.364V482.965M2051.38 429.364H2101.4M2051.38 482.965V536.565M2051.38 482.965H2101.4M2051.38 536.565V590.165M2051.38 536.565H2101.4M2051.38 590.165V643.765M2051.38 590.165H2101.4M2051.38 643.765V697.366M2051.38 643.765H2101.4M2051.38 697.366V750.966M2051.38 697.366H2101.4M2051.38 750.966V804.566M2051.38 750.966H2101.4M2051.38 804.566V858.167M2051.38 804.566H2101.4M2051.38 858.167V911.767M2051.38 858.167H2101.4M2051.38 911.767V965.367M2051.38 911.767H2101.4M2051.38 965.367V1018.97M2051.38 965.367H2101.4M2051.38 1018.97H2101.4M2101.4 0.562235V54.1625M2101.4 0.562235H2151.42M2101.4 54.1625V107.763M2101.4 54.1625H2151.42M2101.4 107.763V161.363M2101.4 107.763H2151.42M2101.4 161.363V214.963M2101.4 161.363H2151.42M2101.4 214.963V268.564M2101.4 214.963H2151.42M2101.4 268.564V322.164M2101.4 268.564H2151.42M2101.4 322.164V375.764M2101.4 322.164H2151.42M2101.4 375.764V429.364M2101.4 375.764H2151.42M2101.4 429.364V482.965M2101.4 429.364H2151.42M2101.4 482.965V536.565M2101.4 482.965H2151.42M2101.4 536.565V590.165M2101.4 536.565H2151.42M2101.4 590.165V643.765M2101.4 590.165H2151.42M2101.4 643.765V697.366M2101.4 643.765H2151.42M2101.4 697.366V750.966M2101.4 697.366H2151.42M2101.4 750.966V804.566M2101.4 750.966H2151.42M2101.4 804.566V858.167M2101.4 804.566H2151.42M2101.4 858.167V911.767M2101.4 858.167H2151.42M2101.4 911.767V965.367M2101.4 911.767H2151.42M2101.4 965.367V1018.97M2101.4 965.367H2151.42M2101.4 1018.97H2151.42M2151.42 0.562235V54.1625M2151.42 0.562235H2201.44V54.1625M2151.42 54.1625V107.763M2151.42 54.1625H2201.44M2151.42 107.763V161.363M2151.42 107.763H2201.44M2151.42 161.363V214.963M2151.42 161.363H2201.44M2151.42 214.963V268.564M2151.42 214.963H2201.44M2151.42 268.564V322.164M2151.42 268.564H2201.44M2151.42 322.164V375.764M2151.42 322.164H2201.44M2151.42 375.764V429.364M2151.42 375.764H2201.44M2151.42 429.364V482.965M2151.42 429.364H2201.44M2151.42 482.965V536.565M2151.42 482.965H2201.44M2151.42 536.565V590.165M2151.42 536.565H2201.44M2151.42 590.165V643.765M2151.42 590.165H2201.44M2151.42 643.765V697.366M2151.42 643.765H2201.44M2151.42 697.366V750.966M2151.42 697.366H2201.44M2151.42 750.966V804.566M2151.42 750.966H2201.44M2151.42 804.566V858.167M2151.42 804.566H2201.44M2151.42 858.167V911.767M2151.42 858.167H2201.44M2151.42 911.767V965.367M2151.42 911.767H2201.44M2151.42 965.367V1018.97M2151.42 965.367H2201.44M2151.42 1018.97H2201.44V965.367M2201.44 54.1625V107.763M2201.44 107.763V161.363M2201.44 161.363V214.963M2201.44 214.963V268.564M2201.44 268.564V322.164M2201.44 322.164V375.764M2201.44 375.764V429.364M2201.44 429.364V482.965M2201.44 482.965V536.565M2201.44 536.565V590.165M2201.44 590.165V643.765M2201.44 643.765V697.366M2201.44 697.366V750.966M2201.44 750.966V804.566M2201.44 804.566V858.167M2201.44 858.167V911.767M2201.44 911.767V965.367" stroke="url(#paint0_radial_714_9957)" stroke-width="1.12435"/>
<defs>
<radialGradient id="paint0_radial_714_9957" cx="0" cy="0" r="1" gradientUnits="userSpaceOnUse" gradientTransform="translate(1101 509.765) rotate(90) scale(509.203 888.623)">
<stop/>
<stop offset="1" stop-opacity="0.2"/>
</radialGradient>
</defs>
</svg>
