<svg preserveAspectRatio="none" width="100%" height="100%" overflow="visible" style="display: block;" viewBox="0 0 266.254 351.666" fill="none" xmlns="http://www.w3.org/2000/svg">
<foreignObject x="-97.1878" y="-97.1878" width="460.63" height="546.042"><div xmlns="http://www.w3.org/1999/xhtml" style="backdrop-filter:blur(48.59px);clip-path:url(#bgblur_0_717_10500_clip_path);height:100%;width:100%"></div></foreignObject><path id="Vector 4" data-figma-bg-blur-radius="97.1878" d="M266.254 0L70.5287 113.386C71.541 153.206 73.5658 247.087 73.5658 304.049C73.5658 361.012 24.5219 346.457 0 332.058C41.1698 356.355 52.3059 356.893 81.2923 340.157L216.31 262.205C249.042 243.307 266.254 244.319 266.254 202.812V0Z" fill="var(--fill-0, #D9D9D9)" fill-opacity="0.2"/>
<defs>
<clipPath id="bgblur_0_717_10500_clip_path" transform="translate(97.1878 97.1878)"><path d="M266.254 0L70.5287 113.386C71.541 153.206 73.5658 247.087 73.5658 304.049C73.5658 361.012 24.5219 346.457 0 332.058C41.1698 356.355 52.3059 356.893 81.2923 340.157L216.31 262.205C249.042 243.307 266.254 244.319 266.254 202.812V0Z"/>
</clipPath></defs>
</svg>
